<?xml version="1.0" standalone="no"?>
<!DOCTYPE svg PUBLIC "-//W3C//DTD SVG 20010904//EN"
 "http://www.w3.org/TR/2001/REC-SVG-20010904/DTD/svg10.dtd">
<svg version="1.0" xmlns="http://www.w3.org/2000/svg"
 width="201.000000pt" height="201.000000pt" viewBox="0 0 201.000000 201.000000"
 preserveAspectRatio="xMidYMid meet">

<g transform="translate(0.000000,201.000000) scale(0.100000,-0.100000)"
fill="#000000" stroke="none">
<path d="M844 1985 c-149 -27 -324 -97 -374 -150 -28 -30 -30 -81 -9 -235 14
-101 16 -105 39 -105 56 0 64 -29 21 -77 -28 -32 -28 -32 -13 -75 15 -40 15
-44 -6 -82 -27 -48 -28 -68 -2 -76 11 -4 28 -21 37 -38 9 -18 38 -58 66 -89
57 -66 56 -80 -5 -108 -81 -37 -108 -19 -108 68 0 20 -11 59 -24 87 -22 47
-38 94 -51 158 -3 15 -12 27 -20 27 -24 0 -90 -66 -117 -117 -58 -110 -68
-129 -73 -156 -7 -32 -29 -45 -50 -27 -23 19 -19 106 10 190 30 89 32 115 8
104 -20 -9 -79 -11 -103 -4 -11 4 -20 -13 -34 -65 -15 -54 -19 -103 -19 -220
0 -130 3 -163 26 -247 94 -352 363 -621 715 -715 85 -23 117 -26 252 -26 135
0 167 3 252 26 421 112 716 472 744 907 6 89 -6 206 -34 330 -8 32 -9 33 -16
13 -4 -13 -5 -27 -2 -31 3 -5 -24 -13 -59 -18 -35 -6 -62 -7 -59 -3 2 4 24 10
48 13 38 6 46 11 55 38 26 75 16 80 -117 48 -46 -11 -91 -20 -100 -20 -28 0 8
20 38 21 22 0 23 1 6 8 -18 7 -18 8 5 14 36 10 61 8 54 -3 -3 -5 -1 -10 4 -10
6 0 11 6 11 14 0 9 19 20 46 28 l45 13 -38 74 c-102 196 -294 370 -506 457
l-67 28 -36 -35 c-20 -19 -61 -69 -91 -111 -30 -43 -59 -80 -64 -83 -18 -12
-8 23 18 61 77 112 113 166 113 174 0 9 -35 20 -67 20 -16 0 -32 -15 -56 -52
-19 -29 -41 -59 -50 -66 -9 -8 -21 -29 -27 -48 -21 -61 -69 -36 -85 46 -4 19
-14 43 -22 52 -14 16 -13 18 13 24 29 7 104 50 104 59 0 10 -156 3 -226 -10z
m700 -392 c-13 -20 -24 -42 -24 -49 0 -8 -4 -14 -10 -14 -5 0 -10 18 -10 39 0
29 6 44 21 55 38 26 50 9 23 -31z m-837 -100 c-3 -10 -5 -2 -5 17 0 19 2 27 5
18 2 -10 2 -26 0 -35z m431 -77 c2 -22 -5 -71 -14 -108 -13 -49 -15 -71 -7
-79 11 -11 116 8 363 66 146 35 220 42 220 23 0 -16 -9 -18 -200 -58 -52 -10
-126 -26 -165 -35 -38 -8 -79 -17 -91 -20 -17 -4 -21 -12 -20 -46 l1 -42 -95
-21 c-74 -17 -96 -25 -98 -39 -2 -10 4 -24 14 -31 16 -13 16 -14 -7 -27 -13
-7 -28 -12 -33 -11 -22 7 -46 -11 -46 -34 0 -13 -4 -24 -10 -24 -5 0 -10 5
-10 10 0 6 -8 5 -20 -2 -10 -7 -23 -9 -27 -5 -4 5 -2 12 6 16 10 6 9 10 -4 15
-9 3 -26 6 -37 6 -13 0 -18 6 -16 18 2 9 7 16 11 15 4 -2 29 5 56 16 27 10 60
16 74 14 17 -3 26 1 31 12 6 16 0 17 -51 11 -32 -4 -73 -10 -90 -13 -28 -4
-33 -2 -33 15 0 12 4 23 8 26 7 4 70 17 157 31 11 2 22 4 25 5 3 1 9 2 14 1 4
-1 14 4 22 10 8 7 17 9 21 6 3 -4 13 -2 20 5 11 9 16 9 23 -2 10 -16 12 -15
28 15 11 20 12 20 18 -2 3 -13 10 -23 14 -23 10 0 22 48 15 60 -3 4 -36 0 -73
-10 -119 -32 -272 -61 -282 -55 -31 19 21 48 118 66 52 10 71 21 72 42 0 4 -7
7 -15 7 -42 0 -70 118 -44 187 14 37 18 39 91 33 l63 -5 3 -39z m665 -196 c-4
-4 -30 -10 -58 -13 l-50 -6 45 12 c41 12 46 17 55 52 l10 40 3 -39 c2 -21 0
-42 -5 -46z m-115 13 l-4 -37 -89 -17 c-50 -10 -139 -26 -200 -35 -60 -9 -116
-21 -123 -27 -18 -15 -25 -3 -17 32 8 35 25 51 25 23 0 -10 3 -21 6 -25 11
-11 34 5 34 23 0 11 5 22 10 25 6 3 10 -3 10 -14 0 -48 45 -34 55 17 4 23 9
31 15 23 4 -7 5 -21 3 -31 -6 -23 6 -30 33 -20 13 5 24 22 29 42 l9 33 3 -32
c4 -34 11 -37 50 -27 14 4 25 18 31 42 l10 37 1 -37 c1 -37 2 -37 34 -32 53 9
57 12 57 44 0 16 5 30 11 30 6 0 9 -15 7 -37z m253 -64 c-8 -38 -9 -40 -10
-12 -1 17 2 39 5 48 11 29 14 10 5 -36z m-150 -46 c-9 -16 -10 -15 -11 7 0 14
4 36 8 50 7 24 7 24 10 -7 2 -18 -1 -41 -7 -50z m109 -29 c-10 -94 -27 -141
-56 -151 -5 -2 -8 35 -7 87 2 85 4 93 34 131 17 22 33 38 35 36 2 -2 0 -48 -6
-103z m-228 37 c-3 -27 -9 -41 -22 -44 -14 -4 -18 -18 -22 -71 -6 -97 -25
-106 -24 -11 1 45 -3 75 -9 75 -6 0 -6 3 1 8 6 4 16 17 23 30 15 27 35 29 28
2 -3 -11 -1 -20 4 -20 5 0 9 16 9 35 0 19 3 35 8 35 4 0 6 -18 4 -39z m-106
-17 c-4 -20 -10 -34 -13 -30 -3 3 -2 21 1 42 4 20 10 34 13 30 3 -3 2 -21 -1
-42z m-93 -11 c-3 -21 -10 -39 -15 -41 -4 -2 -8 -15 -8 -28 0 -17 -6 -24 -19
-24 -10 0 -24 -7 -32 -16 -11 -14 -15 -13 -31 8 -26 33 -22 39 20 36 29 -2 36
0 34 13 -1 8 6 24 16 35 10 10 21 27 25 37 11 29 16 19 10 -20z m-82 -16 c-13
-13 -15 1 -4 30 7 17 8 17 11 -1 2 -10 -1 -23 -7 -29z m-116 3 c4 -6 2 -17 -4
-24 -6 -7 -10 -50 -9 -102 2 -94 -15 -162 -32 -134 -6 8 -10 29 -10 45 -1 59
-16 62 -43 8 -14 -27 -33 -55 -42 -63 -9 -7 -25 -30 -35 -50 -10 -20 -26 -42
-34 -49 -27 -23 -20 44 13 118 16 36 35 84 43 105 11 32 20 42 46 48 25 7 32
14 31 31 -4 43 1 58 24 67 30 12 45 12 52 0z m652 -62 c-2 -13 -4 -5 -4 17 -1
22 1 32 4 23 2 -10 2 -28 0 -40z m-814 6 c9 -10 -4 -34 -18 -34 -20 0 -30 21
-14 31 17 10 24 11 32 3z m-855 -96 c15 -15 16 -136 2 -173 -13 -35 10 -70 56
-85 48 -16 37 -34 -23 -38 -36 -2 -53 1 -63 13 -12 15 -32 256 -22 283 5 15
34 16 50 0z m232 -53 c0 -10 -84 -45 -108 -45 -36 0 -16 18 36 34 51 16 72 19
72 11z m1110 -147 c22 -7 40 -16 40 -20 0 -4 -14 -2 -30 4 -17 5 -42 7 -55 4
-24 -6 -33 3 -18 17 9 10 18 9 63 -5z m307 6 c-3 -3 -12 -4 -19 -1 -8 3 -5 6
6 6 11 1 17 -2 13 -5z m-1353 -350 c8 -22 -12 -56 -32 -52 -18 3 -27 30 -18
54 7 19 42 18 50 -2z m404 -40 c5 -9 7 -37 4 -61 -3 -24 0 -61 6 -81 6 -20 16
-63 23 -95 11 -53 11 -60 -7 -77 -10 -11 -24 -16 -30 -12 -9 6 -44 94 -85 213
-18 52 -5 103 29 116 39 16 50 15 60 -3z m-465 -71 c11 -7 8 -23 -5 -23 -6 0
-19 -7 -29 -16 -35 -32 -80 11 -47 44 11 11 58 8 81 -5z"/>
<path d="M310 1712 c-28 -29 -30 -35 -30 -111 0 -86 10 -102 30 -48 13 37 40
180 35 186 -2 2 -18 -10 -35 -27z"/>
</g>
</svg>
